<svg xmlns="http://www.w3.org/2000/svg" version="1.1" xmlns:xlink="http://www.w3.org/1999/xlink" xmlns:svgjs="http://svgjs.com/svgjs" width="1000" height="1000"><rect width="1000" height="1000" rx="450" ry="450" fill="#f2f2f2"></rect><g transform="matrix(3.9130434782608696,0,0,3.9130434782608696,304.3488150886867,50)"><svg xmlns="http://www.w3.org/2000/svg" version="1.1" xmlns:xlink="http://www.w3.org/1999/xlink" xmlns:svgjs="http://svgjs.com/svgjs" width="100" height="230"><svg width="100" height="230" fill="#000000" xmlns="http://www.w3.org/2000/svg"><path d="M66.874 119.943c1.352-.951 33.122-23.814 33.122-67.277V20.542L48.606 0 15.016 10.024v38.312L.792 51.596v3.263c0 40.126 26.824 60.806 50.489 79.054 7.88 5.806 15.39 12.1 22.488 18.843l-46.02-.738a124.158 124.158 0 0 1 10.963-9.642l5.482-4.468-6.688-5.096-3.886 3.167C-2.631 164.457-9.606 196.089 12.89 230l6.796-4.532a83.957 83.957 0 0 1-5.317-9.196L91.21 200.64a56.494 56.494 0 0 1-4.13 14.962l7.478 3.284a68.053 68.053 0 0 0 5.437-27.404c0-30.332-22.237-47.476-43.74-64.057C33.712 110.041 10.42 92.08 9.022 58.105l51.426-11.787v78.149l6.427-4.524Zm20.411 51.13-76.965 7.829a58.65 58.65 0 0 1 10.229-18.816l60.563.972a56.174 56.174 0 0 1 6.173 10.015Zm-76.157 37.506a48.212 48.212 0 0 1-2.585-21.27l81.666-8.307a47.732 47.732 0 0 1 1.623 12.48c0 .23-.014.453-.016.682l-80.688 16.415Zm57.484-101.014V47.034l23.127 8.46a78.288 78.288 0 0 1-23.127 52.071Zm23.22-60.75-27.037-9.89-12.302 2.82v-29.38L91.832 26.09v20.726Zm-68.65-30.687 21.147-6.313v31.801L23.18 46.464V16.128Z"></path></svg></svg></g></svg>